# xmcd
#
# Track frame offsets:
#	150
#	23654
#	55555
#	75573
#	110054
#	130108
#	166638
#	194462
#	221618
#	276220
#	312506
#
# Disc length: 4470 seconds
#
# Revision: 1
# Processed by: cddbd v1.5.2PL0 Copyright (c) Steve Scherf et al.
# Submitted via: audiograbber 1.83.01
#
DISCID=9011740b
DTITLE=Grateful Dead - 72-07-22 Paramount Northwest Theatre, Seattle WA
DYEAR=1900
DGENRE=
TTITLE0=Mexicali Blues
TTITLE1=Deal
TTITLE2=Promised Land
TTITLE3=Stella Blue
TTITLE4=Yellow Dog Story
TTITLE5=Mississippi Half-Step
TTITLE6=Me and Bobby McGee
TTITLE7=Ramble On Rose
TTITLE8=Morning Dew
TTITLE9=Uncle John's Band
TTITLE10=One More Saturday Night
EXTD=
EXTT0=
EXTT1=
EXTT2=
EXTT3=
EXTT4=
EXTT5=
EXTT6=
EXTT7=
EXTT8=
EXTT9=
EXTT10=
PLAYORDER=
